<?xml version="1.0" encoding="utf-8"?>
<!-- Generator: Adobe Illustrator 16.0.0, SVG Export Plug-In . SVG Version: 6.00 Build 0)  -->
<!DOCTYPE svg PUBLIC "-//W3C//DTD SVG 1.1//EN" "http://www.w3.org/Graphics/SVG/1.1/DTD/svg11.dtd">
<svg version="1.1" id="Layer_1" xmlns="http://www.w3.org/2000/svg" xmlns:xlink="http://www.w3.org/1999/xlink" x="0px" y="0px"
	 width="134.964px" height="63.997px" viewBox="0.018 0.003 134.964 63.997" enable-background="new 0.018 0.003 134.964 63.997"
	 xml:space="preserve">
<g>
	<path fill="#FFFFFF" d="M51.025,18.831L51.025,18.831L62.768,7.089c1.619-1.623,1.619-4.253,0-5.872
		c-1.625-1.619-4.25-1.619-5.873,0L45.152,12.958c-1.618,1.624-1.618,4.254,0,5.873C46.777,20.45,49.402,20.45,51.025,18.831z"/>
	<path fill="#FFFFFF" d="M31.984,0.034L16.001,16.017H4.014c-2.209,0-3.996,1.787-3.996,3.996v23.973
		c0,2.209,1.787,3.996,3.996,3.996h11.987l15.983,15.983c0,0,3.997,0.499,3.997-3.996V4.03C35.98-0.465,31.984,0.034,31.984,0.034z
		 M27.989,47.982l-7.992-7.991H8.01V24.008h11.987l7.991-7.991h0.001V47.982z"/>
	<path fill="#FFFFFF" d="M62.768,56.91L51.025,45.169h0.002c-1.625-1.619-4.25-1.619-5.873,0c-1.619,1.62-1.619,4.25,0,5.873
		l11.74,11.741c1.625,1.619,4.25,1.619,5.873,0C64.387,61.163,64.387,58.533,62.768,56.91z"/>
	<path fill="#FFFFFF" d="M47.967,28.004c-2.209,0-3.996,1.787-3.996,3.996s1.787,3.996,3.996,3.996h11.987
		c2.209,0,3.996-1.787,3.996-3.996s-1.787-3.996-3.996-3.996H47.967z"/>
</g>
<g>
	<path fill="#FFFFFF" d="M122.025,40.85L122.025,40.85l11.742-11.742c1.619-1.623,1.619-4.253,0-5.872
		c-1.625-1.619-4.25-1.619-5.873,0l-11.742,11.741c-1.618,1.624-1.618,4.254,0,5.873C117.777,42.469,120.402,42.469,122.025,40.85z"
		/>
	<path fill="#FFFFFF" d="M102.984,0.053L87.001,16.036H75.014c-2.209,0-3.996,1.787-3.996,3.996v23.973
		c0,2.209,1.787,3.996,3.996,3.996h11.987l15.983,15.982c0,0,3.996,0.499,3.996-3.996V4.049
		C106.98-0.446,102.984,0.053,102.984,0.053z M98.988,48.001l-7.991-7.991H79.01V24.026h11.987l7.991-7.991l0,0V48.001z"/>
	<path fill="#FFFFFF" d="M133.768,34.929l-11.742-11.741h0.002c-1.625-1.619-4.25-1.619-5.873,0c-1.619,1.62-1.619,4.25,0,5.873
		l11.74,11.741c1.625,1.619,4.25,1.619,5.873,0C135.387,39.182,135.387,36.552,133.768,34.929z"/>
</g>
</svg>
